solid stl_item0
  facet normal 0 0 -1
    outer loop
      vertex -19.394 -23.586 0
      vertex -21.3 -11.55 0
      vertex -5.244 19.961 0
    endloop
  endfacet
  facet normal 0 0 -1
    outer loop
      vertex 5.614 25.494 0
      vertex -19.394 -23.586 0
      vertex -5.244 19.961 0
    endloop
  endfacet
  facet normal 0 0 -1
    outer loop
      vertex 17.65 27.4 0
      vertex -19.394 -23.586 0
      vertex 5.614 25.494 0
    endloop
  endfacet
  facet normal 0 0 -1
    outer loop
      vertex 29.686 25.494 0
      vertex -19.394 -23.586 0
      vertex 17.65 27.4 0
    endloop
  endfacet
  facet normal 0 0 -1
    outer loop
      vertex 40.544 19.961 0
      vertex -19.394 -23.586 0
      vertex 29.686 25.494 0
    endloop
  endfacet
  facet normal 0 0 -1
    outer loop
      vertex 49.161 11.344 0
      vertex -19.394 -23.586 0
      vertex 40.544 19.961 0
    endloop
  endfacet
  facet normal 0 0 -1
    outer loop
      vertex 54.694 0.486 0
      vertex -19.394 -23.586 0
      vertex 49.161 11.344 0
    endloop
  endfacet
  facet normal 0 0 1
    outer loop
      vertex -16.952 2.782 12
      vertex -19.394 0.486 12
      vertex -19.083 -4.243 12
    endloop
  endfacet
  facet normal 0 0 1
    outer loop
      vertex -8.833 -38.033 12
      vertex -5.244 -43.061 12
      vertex -3.157 -42.691 12
    endloop
  endfacet
  facet normal 0 0 1
    outer loop
      vertex -13.491 -32.357 12
      vertex -13.861 -34.444 12
      vertex -8.833 -38.033 12
    endloop
  endfacet
  facet normal 0 0 1
    outer loop
      vertex -3.157 -42.691 12
      vertex -5.244 -43.061 12
      vertex 3.318 -46.152 12
    endloop
  endfacet
  facet normal 0 0 1
    outer loop
      vertex 5.614 -48.594 12
      vertex 3.318 -46.152 12
      vertex -5.244 -43.061 12
    endloop
  endfacet
  facet normal 0 0 1
    outer loop
      vertex 17.65 -50.5 12
      vertex 10.343 -48.283 12
      vertex 5.614 -48.594 12
    endloop
  endfacet
  facet normal 0 0 1
    outer loop
      vertex -16.952 -25.882 12
      vertex -13.861 -34.444 12
      vertex -13.491 -32.357 12
    endloop
  endfacet
  facet normal 0 0 1
    outer loop
      vertex -5.244 -43.061 12
      vertex -8.833 -38.033 12
      vertex -13.861 -34.444 12
    endloop
  endfacet
  facet normal 0 0 1
    outer loop
      vertex -19.083 -18.857 12
      vertex -19.394 -23.586 12
      vertex -16.952 -25.882 12
    endloop
  endfacet
  facet normal 0 0 1
    outer loop
      vertex 29.686 -48.594 12
      vertex 24.957 -48.283 12
      vertex 17.65 -50.5 12
    endloop
  endfacet
  facet normal 0 0 1
    outer loop
      vertex -19.803 -11.55 12
      vertex -21.3 -11.55 12
      vertex -19.083 -18.857 12
    endloop
  endfacet
  facet normal 0 0 1
    outer loop
      vertex -13.861 -34.444 12
      vertex -16.952 -25.882 12
      vertex -19.394 -23.586 12
    endloop
  endfacet
  facet normal 0 0 1
    outer loop
      vertex -19.803 -11.55 12
      vertex -19.083 -4.243 12
      vertex -21.3 -11.55 12
    endloop
  endfacet
  facet normal 0 0 1
    outer loop
      vertex -19.394 -23.586 12
      vertex -19.083 -18.857 12
      vertex -21.3 -11.55 12
    endloop
  endfacet
  facet normal 0 0 -1
    outer loop
      vertex -13.861 11.344 0
      vertex -5.244 19.961 0
      vertex -21.3 -11.55 0
    endloop
  endfacet
  facet normal 0 0 -1
    outer loop
      vertex -19.394 -23.586 0
      vertex 54.694 0.486 0
      vertex 56.6 -11.55 0
    endloop
  endfacet
  facet normal 0 0 -1
    outer loop
      vertex -19.394 -23.586 0
      vertex 56.6 -11.55 0
      vertex 54.694 -23.586 0
    endloop
  endfacet
  facet normal 0 0 -1
    outer loop
      vertex -19.394 -23.586 0
      vertex 54.694 -23.586 0
      vertex 49.161 -34.444 0
    endloop
  endfacet
  facet normal 0 0 -1
    outer loop
      vertex -19.394 -23.586 0
      vertex 49.161 -34.444 0
      vertex 40.544 -43.061 0
    endloop
  endfacet
  facet normal 0 0 -1
    outer loop
      vertex -19.394 -23.586 0
      vertex 40.544 -43.061 0
      vertex 29.686 -48.594 0
    endloop
  endfacet
  facet normal 0 0 -1
    outer loop
      vertex 29.686 -48.594 0
      vertex 17.65 -50.5 0
      vertex -19.394 -23.586 0
    endloop
  endfacet
  facet normal 0 0 -1
    outer loop
      vertex -19.394 -23.586 0
      vertex 5.614 -48.594 0
      vertex -5.244 -43.061 0
    endloop
  endfacet
  facet normal 0 0 -1
    outer loop
      vertex -19.394 -23.586 0
      vertex -5.244 -43.061 0
      vertex -13.861 -34.444 0
    endloop
  endfacet
  facet normal 0 0 -1
    outer loop
      vertex 5.614 -48.594 0
      vertex -19.394 -23.586 0
      vertex 17.65 -50.5 0
    endloop
  endfacet
  facet normal 0 0 -1
    outer loop
      vertex -19.394 0.486 0
      vertex -13.861 11.344 0
      vertex -21.3 -11.55 0
    endloop
  endfacet
  facet normal 0 0 1
    outer loop
      vertex 55.102 -11.55 12
      vertex 56.6 -11.55 12
      vertex 54.383 -4.243 12
    endloop
  endfacet
  facet normal -0.99519 0.09793 0
    outer loop
      vertex 54.383 -18.857 1.498
      vertex 54.383 -18.857 12
      vertex 55.102 -11.55 12
    endloop
  endfacet
  facet normal -0.99519 0.09793 0
    outer loop
      vertex 54.383 -18.857 1.498
      vertex 55.102 -11.55 12
      vertex 55.102 -11.55 1.498
    endloop
  endfacet
  facet normal -0.95694 0.29028 0
    outer loop
      vertex 52.252 -25.882 1.498
      vertex 52.252 -25.882 12
      vertex 54.383 -18.857 12
    endloop
  endfacet
  facet normal -0.95694 0.29028 0
    outer loop
      vertex 52.252 -25.882 1.498
      vertex 54.383 -18.857 12
      vertex 54.383 -18.857 1.498
    endloop
  endfacet
  facet normal -0.88192 0.4714 0
    outer loop
      vertex 48.791 -32.357 1.498
      vertex 48.791 -32.357 12
      vertex 52.252 -25.882 12
    endloop
  endfacet
  facet normal -0.88192 0.4714 0
    outer loop
      vertex 48.791 -32.357 1.498
      vertex 52.252 -25.882 12
      vertex 52.252 -25.882 1.498
    endloop
  endfacet
  facet normal 0 0 1
    outer loop
      vertex 52.252 -25.882 12
      vertex 54.694 -23.586 12
      vertex 54.383 -18.857 12
    endloop
  endfacet
  facet normal 0 0 1
    outer loop
      vertex 55.102 -11.55 12
      vertex 54.383 -18.857 12
      vertex 56.6 -11.55 12
    endloop
  endfacet
  facet normal 0 0 1
    outer loop
      vertex -13.491 9.257 12
      vertex -13.861 11.344 12
      vertex -16.952 2.782 12
    endloop
  endfacet
  facet normal 0 0 1
    outer loop
      vertex -21.3 -11.55 12
      vertex -19.083 -4.243 12
      vertex -19.394 0.486 12
    endloop
  endfacet
  facet normal -0.77302 0.63438 0
    outer loop
      vertex 44.133 -38.033 1.498
      vertex 44.133 -38.033 12
      vertex 48.791 -32.357 12
    endloop
  endfacet
  facet normal -0.77302 0.63438 0
    outer loop
      vertex 44.133 -38.033 1.498
      vertex 48.791 -32.357 12
      vertex 48.791 -32.357 1.498
    endloop
  endfacet
  facet normal 0 0 1
    outer loop
      vertex 48.791 -32.357 12
      vertex 49.161 -34.444 12
      vertex 52.252 -25.882 12
    endloop
  endfacet
  facet normal 0 0 1
    outer loop
      vertex 56.6 -11.55 12
      vertex 54.383 -18.857 12
      vertex 54.694 -23.586 12
    endloop
  endfacet
  facet normal -0.63438 0.77302 0
    outer loop
      vertex 38.457 -42.691 1.498
      vertex 38.457 -42.691 12
      vertex 44.133 -38.033 12
    endloop
  endfacet
  facet normal -0.63438 0.77302 0
    outer loop
      vertex 38.457 -42.691 1.498
      vertex 44.133 -38.033 12
      vertex 44.133 -38.033 1.498
    endloop
  endfacet
  facet normal -0.4714 0.88192 0
    outer loop
      vertex 31.982 -46.152 1.498
      vertex 31.982 -46.152 12
      vertex 38.457 -42.691 12
    endloop
  endfacet
  facet normal -0.4714 0.88192 0
    outer loop
      vertex 31.982 -46.152 1.498
      vertex 38.457 -42.691 12
      vertex 38.457 -42.691 1.498
    endloop
  endfacet
  facet normal 0 0 1
    outer loop
      vertex 44.133 -38.033 12
      vertex 49.161 -34.444 12
      vertex 48.791 -32.357 12
    endloop
  endfacet
  facet normal 0 0 1
    outer loop
      vertex 54.694 -23.586 12
      vertex 52.252 -25.882 12
      vertex 49.161 -34.444 12
    endloop
  endfacet
  facet normal 0.15641 0.98769 0
    outer loop
      vertex 29.686 25.494 0
      vertex 17.65 27.4 0
      vertex 29.686 25.494 12
    endloop
  endfacet
  facet normal 0.15641 0.98769 0
    outer loop
      vertex 17.65 27.4 12
      vertex 29.686 25.494 12
      vertex 17.65 27.4 0
    endloop
  endfacet
  facet normal -0.29028 0.95694 0
    outer loop
      vertex 24.957 -48.283 1.498
      vertex 24.957 -48.283 12
      vertex 31.982 -46.152 12
    endloop
  endfacet
  facet normal -0.29028 0.95694 0
    outer loop
      vertex 24.957 -48.283 1.498
      vertex 31.982 -46.152 12
      vertex 31.982 -46.152 1.498
    endloop
  endfacet
  facet normal -0.09806 0.99518 0
    outer loop
      vertex 24.957 -48.283 12
      vertex 24.957 -48.283 1.498
      vertex 17.65 -49.003 1.498
    endloop
  endfacet
  facet normal -0.09806 0.99518 0
    outer loop
      vertex 24.957 -48.283 12
      vertex 17.65 -49.003 1.498
      vertex 17.65 -49.003 12
    endloop
  endfacet
  facet normal 0 0 1
    outer loop
      vertex 38.457 -42.691 12
      vertex 40.544 -43.061 12
      vertex 44.133 -38.033 12
    endloop
  endfacet
  facet normal 0.09806 0.99518 0
    outer loop
      vertex 10.343 -48.283 1.498
      vertex 10.343 -48.283 12
      vertex 17.65 -49.003 12
    endloop
  endfacet
  facet normal 0.09806 0.99518 0
    outer loop
      vertex 10.343 -48.283 1.498
      vertex 17.65 -49.003 12
      vertex 17.65 -49.003 1.498
    endloop
  endfacet
  facet normal 0.29028 0.95694 0
    outer loop
      vertex 3.318 -46.152 1.498
      vertex 3.318 -46.152 12
      vertex 10.343 -48.283 12
    endloop
  endfacet
  facet normal 0.29028 0.95694 0
    outer loop
      vertex 3.318 -46.152 1.498
      vertex 10.343 -48.283 12
      vertex 10.343 -48.283 1.498
    endloop
  endfacet
  facet normal 0 0 1
    outer loop
      vertex 31.982 -46.152 12
      vertex 40.544 -43.061 12
      vertex 38.457 -42.691 12
    endloop
  endfacet
  facet normal 0 0 1
    outer loop
      vertex 49.161 -34.444 12
      vertex 44.133 -38.033 12
      vertex 40.544 -43.061 12
    endloop
  endfacet
  facet normal 0.4714 0.88192 0
    outer loop
      vertex 3.318 -46.152 1.498
      vertex -3.157 -42.691 12
      vertex 3.318 -46.152 12
    endloop
  endfacet
  facet normal 0 0 1
    outer loop
      vertex 24.957 -48.283 12
      vertex 29.686 -48.594 12
      vertex 31.982 -46.152 12
    endloop
  endfacet
  facet normal 0.45403 0.89099 0
    outer loop
      vertex 29.686 25.494 0
      vertex 40.544 19.961 12
      vertex 40.544 19.961 0
    endloop
  endfacet
  facet normal 0.45403 0.89099 0
    outer loop
      vertex 29.686 25.494 12
      vertex 40.544 19.961 12
      vertex 29.686 25.494 0
    endloop
  endfacet
  facet normal 0 0 1
    outer loop
      vertex -19.083 -18.857 1.498
      vertex 48.791 9.257 1.498
      vertex -19.803 -11.55 1.498
    endloop
  endfacet
  facet normal 0 0 1
    outer loop
      vertex -19.083 -4.243 1.498
      vertex -19.803 -11.55 1.498
      vertex 48.791 9.257 1.498
    endloop
  endfacet
  facet normal 0 0 1
    outer loop
      vertex -16.952 -25.882 1.498
      vertex 48.791 9.257 1.498
      vertex -19.083 -18.857 1.498
    endloop
  endfacet
  facet normal 0 0 1
    outer loop
      vertex -13.491 -32.357 1.498
      vertex 48.791 9.257 1.498
      vertex -16.952 -25.882 1.498
    endloop
  endfacet
  facet normal 0 0 1
    outer loop
      vertex -8.833 -38.033 1.498
      vertex 48.791 9.257 1.498
      vertex -13.491 -32.357 1.498
    endloop
  endfacet
  facet normal 0 0 1
    outer loop
      vertex -3.157 -42.691 1.498
      vertex 48.791 9.257 1.498
      vertex -8.833 -38.033 1.498
    endloop
  endfacet
  facet normal 0.70711 -0.70711 0
    outer loop
      vertex 49.161 -34.444 12
      vertex 40.544 -43.061 12
      vertex 49.161 -34.444 0
    endloop
  endfacet
  facet normal 0 0 1
    outer loop
      vertex 17.65 -49.003 12
      vertex 17.65 -50.5 12
      vertex 24.957 -48.283 12
    endloop
  endfacet
  facet normal 0 0 1
    outer loop
      vertex 40.544 -43.061 12
      vertex 31.982 -46.152 12
      vertex 29.686 -48.594 12
    endloop
  endfacet
  facet normal 0.70711 0.70711 0
    outer loop
      vertex 49.161 11.344 0
      vertex 40.544 19.961 0
      vertex 49.161 11.344 12
    endloop
  endfacet
  facet normal 0.70711 0.70711 0
    outer loop
      vertex 40.544 19.961 12
      vertex 49.161 11.344 12
      vertex 40.544 19.961 0
    endloop
  endfacet
  facet normal 0.70711 -0.70711 0
    outer loop
      vertex 40.544 -43.061 0
      vertex 49.161 -34.444 0
      vertex 40.544 -43.061 12
    endloop
  endfacet
  facet normal 0 0 1
    outer loop
      vertex 3.318 -46.152 12
      vertex 5.614 -48.594 12
      vertex 10.343 -48.283 12
    endloop
  endfacet
  facet normal 0 0 1
    outer loop
      vertex 17.65 -49.003 12
      vertex 10.343 -48.283 12
      vertex 17.65 -50.5 12
    endloop
  endfacet
  facet normal 0.89099 0.45403 0
    outer loop
      vertex 54.694 0.486 0
      vertex 49.161 11.344 0
      vertex 54.694 0.486 12
    endloop
  endfacet
  facet normal 0.89099 0.45403 0
    outer loop
      vertex 49.161 11.344 12
      vertex 54.694 0.486 12
      vertex 49.161 11.344 0
    endloop
  endfacet
  facet normal 0 0 1
    outer loop
      vertex -3.157 -42.691 1.498
      vertex 3.318 -46.152 1.498
      vertex 10.343 -48.283 1.498
    endloop
  endfacet
  facet normal 0 0 1
    outer loop
      vertex -3.157 -42.691 1.498
      vertex 10.343 -48.283 1.498
      vertex 17.65 -49.003 1.498
    endloop
  endfacet
  facet normal 0 0 1
    outer loop
      vertex -3.157 -42.691 1.498
      vertex 17.65 -49.003 1.498
      vertex 24.957 -48.283 1.498
    endloop
  endfacet
  facet normal 0 0 1
    outer loop
      vertex -3.157 -42.691 1.498
      vertex 24.957 -48.283 1.498
      vertex 31.982 -46.152 1.498
    endloop
  endfacet
  facet normal 0 0 1
    outer loop
      vertex -3.157 -42.691 1.498
      vertex 31.982 -46.152 1.498
      vertex 38.457 -42.691 1.498
    endloop
  endfacet
  facet normal 0 0 1
    outer loop
      vertex -3.157 -42.691 1.498
      vertex 38.457 -42.691 1.498
      vertex 44.133 -38.033 1.498
    endloop
  endfacet
  facet normal 0 0 1
    outer loop
      vertex -3.157 -42.691 1.498
      vertex 44.133 -38.033 1.498
      vertex 48.791 -32.357 1.498
    endloop
  endfacet
  facet normal 0 0 1
    outer loop
      vertex -3.157 -42.691 1.498
      vertex 48.791 -32.357 1.498
      vertex 52.252 -25.882 1.498
    endloop
  endfacet
  facet normal 0 0 1
    outer loop
      vertex -3.157 -42.691 1.498
      vertex 52.252 -25.882 1.498
      vertex 54.383 -18.857 1.498
    endloop
  endfacet
  facet normal 0 0 1
    outer loop
      vertex -3.157 -42.691 1.498
      vertex 54.383 -18.857 1.498
      vertex 55.102 -11.55 1.498
    endloop
  endfacet
  facet normal 0 0 1
    outer loop
      vertex -3.157 -42.691 1.498
      vertex 55.102 -11.55 1.498
      vertex 54.383 -4.243 1.498
    endloop
  endfacet
  facet normal 0 0 1
    outer loop
      vertex -3.157 -42.691 1.498
      vertex 54.383 -4.243 1.498
      vertex 52.252 2.782 1.498
    endloop
  endfacet
  facet normal 0 0 1
    outer loop
      vertex -8.833 14.933 12
      vertex -13.861 11.344 12
      vertex -13.491 9.257 12
    endloop
  endfacet
  facet normal 0 0 1
    outer loop
      vertex -19.394 0.486 12
      vertex -16.952 2.782 12
      vertex -13.861 11.344 12
    endloop
  endfacet
  facet normal 0.45403 -0.89099 0
    outer loop
      vertex 40.544 -43.061 0
      vertex 40.544 -43.061 12
      vertex 29.686 -48.594 12
    endloop
  endfacet
  facet normal 0 0 1
    outer loop
      vertex -3.157 19.591 12
      vertex -5.244 19.961 12
      vertex -8.833 14.933 12
    endloop
  endfacet
  facet normal 0.45403 -0.89099 0
    outer loop
      vertex 40.544 -43.061 0
      vertex 29.686 -48.594 12
      vertex 29.686 -48.594 0
    endloop
  endfacet
  facet normal -0.98769 0.15641 0
    outer loop
      vertex -19.394 0.486 12
      vertex -19.394 0.486 0
      vertex -21.3 -11.55 0
    endloop
  endfacet
  facet normal -0.98769 0.15641 0
    outer loop
      vertex -19.394 0.486 12
      vertex -21.3 -11.55 0
      vertex -21.3 -11.55 12
    endloop
  endfacet
  facet normal 0 0 1
    outer loop
      vertex 3.318 23.052 12
      vertex -5.244 19.961 12
      vertex -3.157 19.591 12
    endloop
  endfacet
  facet normal 0 0 1
    outer loop
      vertex -13.861 11.344 12
      vertex -8.833 14.933 12
      vertex -5.244 19.961 12
    endloop
  endfacet
  facet normal -0.89099 0.45403 0
    outer loop
      vertex -13.861 11.344 0
      vertex -19.394 0.486 0
      vertex -13.861 11.344 12
    endloop
  endfacet
  facet normal -0.89099 0.45403 0
    outer loop
      vertex -19.394 0.486 12
      vertex -13.861 11.344 12
      vertex -19.394 0.486 0
    endloop
  endfacet
  facet normal 0 0 1
    outer loop
      vertex 10.343 25.183 12
      vertex 5.614 25.494 12
      vertex 3.318 23.052 12
    endloop
  endfacet
  facet normal 0 0 1
    outer loop
      vertex 17.65 25.902 12
      vertex 17.65 27.4 12
      vertex 10.343 25.183 12
    endloop
  endfacet
  facet normal 0 0 1
    outer loop
      vertex -5.244 19.961 12
      vertex 3.318 23.052 12
      vertex 5.614 25.494 12
    endloop
  endfacet
  facet normal 0.15641 -0.98769 0
    outer loop
      vertex 29.686 -48.594 0
      vertex 29.686 -48.594 12
      vertex 17.65 -50.5 0
    endloop
  endfacet
  facet normal 0.15641 -0.98769 0
    outer loop
      vertex 17.65 -50.5 12
      vertex 17.65 -50.5 0
      vertex 29.686 -48.594 12
    endloop
  endfacet
  facet normal 0.29028 -0.95694 0
    outer loop
      vertex 10.343 25.183 1.498
      vertex 10.343 25.183 12
      vertex 3.318 23.052 12
    endloop
  endfacet
  facet normal 0.29028 -0.95694 0
    outer loop
      vertex 10.343 25.183 1.498
      vertex 3.318 23.052 12
      vertex 3.318 23.052 1.498
    endloop
  endfacet
  facet normal -0.89099 -0.45403 0
    outer loop
      vertex -13.861 -34.444 0
      vertex -13.861 -34.444 12
      vertex -19.394 -23.586 12
    endloop
  endfacet
  facet normal 0.09793 -0.99519 0
    outer loop
      vertex 17.65 25.902 1.498
      vertex 17.65 25.902 12
      vertex 10.343 25.183 12
    endloop
  endfacet
  facet normal 0.09793 -0.99519 0
    outer loop
      vertex 17.65 25.902 1.498
      vertex 10.343 25.183 12
      vertex 10.343 25.183 1.498
    endloop
  endfacet
  facet normal -0.89099 -0.45403 0
    outer loop
      vertex -19.394 -23.586 12
      vertex -19.394 -23.586 0
      vertex -13.861 -34.444 0
    endloop
  endfacet
  facet normal -0.15641 -0.98769 0
    outer loop
      vertex 5.614 -48.594 12
      vertex 5.614 -48.594 0
      vertex 17.65 -50.5 12
    endloop
  endfacet
  facet normal -0.15641 -0.98769 0
    outer loop
      vertex 17.65 -50.5 12
      vertex 5.614 -48.594 0
      vertex 17.65 -50.5 0
    endloop
  endfacet
  facet normal 0 0 1
    outer loop
      vertex 29.686 25.494 12
      vertex 24.957 25.183 12
      vertex 31.982 23.052 12
    endloop
  endfacet
  facet normal 0 0 1
    outer loop
      vertex 38.457 19.591 12
      vertex 40.544 19.961 12
      vertex 31.982 23.052 12
    endloop
  endfacet
  facet normal 0 0 1
    outer loop
      vertex 40.544 19.961 12
      vertex 29.686 25.494 12
      vertex 31.982 23.052 12
    endloop
  endfacet
  facet normal -0.09793 -0.99519 0
    outer loop
      vertex 24.957 25.183 1.498
      vertex 24.957 25.183 12
      vertex 17.65 25.902 12
    endloop
  endfacet
  facet normal -0.09793 -0.99519 0
    outer loop
      vertex 24.957 25.183 1.498
      vertex 17.65 25.902 12
      vertex 17.65 25.902 1.498
    endloop
  endfacet
  facet normal 0 0 1
    outer loop
      vertex 44.133 14.933 12
      vertex 40.544 19.961 12
      vertex 38.457 19.591 12
    endloop
  endfacet
  facet normal -0.29028 -0.95694 0
    outer loop
      vertex 31.982 23.052 1.498
      vertex 31.982 23.052 12
      vertex 24.957 25.183 12
    endloop
  endfacet
  facet normal -0.29028 -0.95694 0
    outer loop
      vertex 31.982 23.052 1.498
      vertex 24.957 25.183 12
      vertex 24.957 25.183 1.498
    endloop
  endfacet
  facet normal 0 0 1
    outer loop
      vertex 48.791 9.257 12
      vertex 49.161 11.344 12
      vertex 44.133 14.933 12
    endloop
  endfacet
  facet normal 0 0 1
    outer loop
      vertex 49.161 11.344 12
      vertex 40.544 19.961 12
      vertex 44.133 14.933 12
    endloop
  endfacet
  facet normal -0.98769 -0.15641 0
    outer loop
      vertex -19.394 -23.586 0
      vertex -19.394 -23.586 12
      vertex -21.3 -11.55 0
    endloop
  endfacet
  facet normal -0.98769 -0.15641 0
    outer loop
      vertex -21.3 -11.55 12
      vertex -21.3 -11.55 0
      vertex -19.394 -23.586 12
    endloop
  endfacet
  facet normal -0.4714 -0.88192 0
    outer loop
      vertex 38.457 19.591 1.498
      vertex 38.457 19.591 12
      vertex 31.982 23.052 12
    endloop
  endfacet
  facet normal -0.4714 -0.88192 0
    outer loop
      vertex 38.457 19.591 1.498
      vertex 31.982 23.052 12
      vertex 31.982 23.052 1.498
    endloop
  endfacet
  facet normal -0.45403 -0.89099 0
    outer loop
      vertex 5.614 -48.594 12
      vertex -5.244 -43.061 12
      vertex -5.244 -43.061 0
    endloop
  endfacet
  facet normal -0.45403 -0.89099 0
    outer loop
      vertex 5.614 -48.594 12
      vertex -5.244 -43.061 0
      vertex 5.614 -48.594 0
    endloop
  endfacet
  facet normal 0 0 1
    outer loop
      vertex 52.252 2.782 12
      vertex 49.161 11.344 12
      vertex 48.791 9.257 12
    endloop
  endfacet
  facet normal -0.63438 -0.77302 0
    outer loop
      vertex 44.133 14.933 1.498
      vertex 44.133 14.933 12
      vertex 38.457 19.591 12
    endloop
  endfacet
  facet normal -0.63438 -0.77302 0
    outer loop
      vertex 44.133 14.933 1.498
      vertex 38.457 19.591 12
      vertex 38.457 19.591 1.498
    endloop
  endfacet
  facet normal 0 0 1
    outer loop
      vertex 56.6 -11.55 12
      vertex 54.694 0.486 12
      vertex 54.383 -4.243 12
    endloop
  endfacet
  facet normal 0 0 1
    outer loop
      vertex 52.252 2.782 12
      vertex 54.383 -4.243 12
      vertex 54.694 0.486 12
    endloop
  endfacet
  facet normal 0 0 1
    outer loop
      vertex 49.161 11.344 12
      vertex 52.252 2.782 12
      vertex 54.694 0.486 12
    endloop
  endfacet
  facet normal -0.77302 -0.63438 0
    outer loop
      vertex 48.791 9.257 1.498
      vertex 48.791 9.257 12
      vertex 44.133 14.933 12
    endloop
  endfacet
  facet normal -0.77302 -0.63438 0
    outer loop
      vertex 48.791 9.257 1.498
      vertex 44.133 14.933 12
      vertex 44.133 14.933 1.498
    endloop
  endfacet
  facet normal 0 0 1
    outer loop
      vertex 5.614 25.494 12
      vertex 10.343 25.183 12
      vertex 17.65 27.4 12
    endloop
  endfacet
  facet normal 0 0 1
    outer loop
      vertex 17.65 27.4 12
      vertex 17.65 25.902 12
      vertex 24.957 25.183 12
    endloop
  endfacet
  facet normal 0 0 1
    outer loop
      vertex 17.65 27.4 12
      vertex 24.957 25.183 12
      vertex 29.686 25.494 12
    endloop
  endfacet
  facet normal -0.88192 -0.4714 0
    outer loop
      vertex 52.252 2.782 1.498
      vertex 52.252 2.782 12
      vertex 48.791 9.257 12
    endloop
  endfacet
  facet normal -0.88192 -0.4714 0
    outer loop
      vertex 52.252 2.782 1.498
      vertex 48.791 9.257 12
      vertex 48.791 9.257 1.498
    endloop
  endfacet
  facet normal -0.70711 -0.70711 0
    outer loop
      vertex -13.861 -34.444 12
      vertex -13.861 -34.444 0
      vertex -5.244 -43.061 12
    endloop
  endfacet
  facet normal -0.95694 -0.29028 0
    outer loop
      vertex 52.252 2.782 1.498
      vertex 54.383 -4.243 12
      vertex 52.252 2.782 12
    endloop
  endfacet
  facet normal 0.99518 -0.09806 0
    outer loop
      vertex -19.083 -4.243 1.498
      vertex -19.083 -4.243 12
      vertex -19.803 -11.55 12
    endloop
  endfacet
  facet normal 0.99518 -0.09806 0
    outer loop
      vertex -19.083 -4.243 1.498
      vertex -19.803 -11.55 12
      vertex -19.803 -11.55 1.498
    endloop
  endfacet
  facet normal -0.70711 -0.70711 0
    outer loop
      vertex -13.861 -34.444 0
      vertex -5.244 -43.061 0
      vertex -5.244 -43.061 12
    endloop
  endfacet
  facet normal 0.95694 -0.29028 0
    outer loop
      vertex -16.952 2.782 1.498
      vertex -16.952 2.782 12
      vertex -19.083 -4.243 12
    endloop
  endfacet
  facet normal 0.95694 -0.29028 0
    outer loop
      vertex -16.952 2.782 1.498
      vertex -19.083 -4.243 12
      vertex -19.083 -4.243 1.498
    endloop
  endfacet
  facet normal 0.4714 0.88192 0
    outer loop
      vertex -3.157 -42.691 12
      vertex 3.318 -46.152 1.498
      vertex -3.157 -42.691 1.498
    endloop
  endfacet
  facet normal 0 0 1
    outer loop
      vertex -16.952 2.782 1.498
      vertex -19.083 -4.243 1.498
      vertex 48.791 9.257 1.498
    endloop
  endfacet
  facet normal 0 0 1
    outer loop
      vertex 52.252 2.782 1.498
      vertex 48.791 9.257 1.498
      vertex -3.157 -42.691 1.498
    endloop
  endfacet
  facet normal 0 0 1
    outer loop
      vertex -13.491 9.257 1.498
      vertex -16.952 2.782 1.498
      vertex 48.791 9.257 1.498
    endloop
  endfacet
  facet normal 0 0 1
    outer loop
      vertex -13.491 9.257 1.498
      vertex 48.791 9.257 1.498
      vertex 44.133 14.933 1.498
    endloop
  endfacet
  facet normal 0 0 1
    outer loop
      vertex -13.491 9.257 1.498
      vertex 44.133 14.933 1.498
      vertex 38.457 19.591 1.498
    endloop
  endfacet
  facet normal 0 0 1
    outer loop
      vertex -13.491 9.257 1.498
      vertex 38.457 19.591 1.498
      vertex 31.982 23.052 1.498
    endloop
  endfacet
  facet normal 0 0 1
    outer loop
      vertex -13.491 9.257 1.498
      vertex 31.982 23.052 1.498
      vertex 24.957 25.183 1.498
    endloop
  endfacet
  facet normal 0 0 1
    outer loop
      vertex -13.491 9.257 1.498
      vertex 24.957 25.183 1.498
      vertex 17.65 25.902 1.498
    endloop
  endfacet
  facet normal 0 0 1
    outer loop
      vertex -13.491 9.257 1.498
      vertex 17.65 25.902 1.498
      vertex 10.343 25.183 1.498
    endloop
  endfacet
  facet normal 0 0 1
    outer loop
      vertex -13.491 9.257 1.498
      vertex 10.343 25.183 1.498
      vertex 3.318 23.052 1.498
    endloop
  endfacet
  facet normal 0 0 1
    outer loop
      vertex -13.491 9.257 1.498
      vertex 3.318 23.052 1.498
      vertex -3.157 19.591 1.498
    endloop
  endfacet
  facet normal 0 0 1
    outer loop
      vertex -13.491 9.257 1.498
      vertex -3.157 19.591 1.498
      vertex -8.833 14.933 1.498
    endloop
  endfacet
  facet normal 0.63438 0.77302 0
    outer loop
      vertex -3.157 -42.691 12
      vertex -3.157 -42.691 1.498
      vertex -8.833 -38.033 1.498
    endloop
  endfacet
  facet normal 0.63438 0.77302 0
    outer loop
      vertex -3.157 -42.691 12
      vertex -8.833 -38.033 1.498
      vertex -8.833 -38.033 12
    endloop
  endfacet
  facet normal 0.77302 0.63438 0
    outer loop
      vertex -13.491 -32.357 1.498
      vertex -13.491 -32.357 12
      vertex -8.833 -38.033 12
    endloop
  endfacet
  facet normal 0.77302 0.63438 0
    outer loop
      vertex -13.491 -32.357 1.498
      vertex -8.833 -38.033 12
      vertex -8.833 -38.033 1.498
    endloop
  endfacet
  facet normal 0.88192 0.4714 0
    outer loop
      vertex -16.952 -25.882 1.498
      vertex -16.952 -25.882 12
      vertex -13.491 -32.357 12
    endloop
  endfacet
  facet normal 0.88192 0.4714 0
    outer loop
      vertex -16.952 -25.882 1.498
      vertex -13.491 -32.357 12
      vertex -13.491 -32.357 1.498
    endloop
  endfacet
  facet normal 0.95694 0.29028 0
    outer loop
      vertex -19.083 -18.857 1.498
      vertex -19.083 -18.857 12
      vertex -16.952 -25.882 12
    endloop
  endfacet
  facet normal 0.95694 0.29028 0
    outer loop
      vertex -19.083 -18.857 1.498
      vertex -16.952 -25.882 12
      vertex -16.952 -25.882 1.498
    endloop
  endfacet
  facet normal 0.98769 0.15641 0
    outer loop
      vertex 56.6 -11.55 0
      vertex 54.694 0.486 0
      vertex 56.6 -11.55 12
    endloop
  endfacet
  facet normal 0.98769 0.15641 0
    outer loop
      vertex 54.694 0.486 0
      vertex 54.694 0.486 12
      vertex 56.6 -11.55 12
    endloop
  endfacet
  facet normal 0.99518 0.09806 0
    outer loop
      vertex -19.083 -18.857 12
      vertex -19.083 -18.857 1.498
      vertex -19.803 -11.55 1.498
    endloop
  endfacet
  facet normal 0.99518 0.09806 0
    outer loop
      vertex -19.083 -18.857 12
      vertex -19.803 -11.55 1.498
      vertex -19.803 -11.55 12
    endloop
  endfacet
  facet normal 0.98769 -0.15641 0
    outer loop
      vertex 54.694 -23.586 12
      vertex 54.694 -23.586 0
      vertex 56.6 -11.55 12
    endloop
  endfacet
  facet normal 0.98769 -0.15641 0
    outer loop
      vertex 56.6 -11.55 0
      vertex 56.6 -11.55 12
      vertex 54.694 -23.586 0
    endloop
  endfacet
  facet normal -0.95694 -0.29028 0
    outer loop
      vertex 54.383 -4.243 12
      vertex 52.252 2.782 1.498
      vertex 54.383 -4.243 1.498
    endloop
  endfacet
  facet normal -0.99519 -0.09793 0
    outer loop
      vertex 54.383 -4.243 12
      vertex 54.383 -4.243 1.498
      vertex 55.102 -11.55 1.498
    endloop
  endfacet
  facet normal -0.99519 -0.09793 0
    outer loop
      vertex 54.383 -4.243 12
      vertex 55.102 -11.55 1.498
      vertex 55.102 -11.55 12
    endloop
  endfacet
  facet normal 0.89099 -0.45403 0
    outer loop
      vertex 49.161 -34.444 0
      vertex 54.694 -23.586 0
      vertex 49.161 -34.444 12
    endloop
  endfacet
  facet normal 0.89099 -0.45403 0
    outer loop
      vertex 54.694 -23.586 12
      vertex 49.161 -34.444 12
      vertex 54.694 -23.586 0
    endloop
  endfacet
  facet normal -0.70711 0.70711 0
    outer loop
      vertex -13.861 11.344 12
      vertex -5.244 19.961 12
      vertex -5.244 19.961 0
    endloop
  endfacet
  facet normal -0.70711 0.70711 0
    outer loop
      vertex -13.861 11.344 12
      vertex -5.244 19.961 0
      vertex -13.861 11.344 0
    endloop
  endfacet
  facet normal -0.45403 0.89099 0
    outer loop
      vertex 5.614 25.494 0
      vertex -5.244 19.961 0
      vertex 5.614 25.494 12
    endloop
  endfacet
  facet normal -0.45403 0.89099 0
    outer loop
      vertex -5.244 19.961 12
      vertex 5.614 25.494 12
      vertex -5.244 19.961 0
    endloop
  endfacet
  facet normal -0.15641 0.98769 0
    outer loop
      vertex 17.65 27.4 0
      vertex 5.614 25.494 0
      vertex 5.614 25.494 12
    endloop
  endfacet
  facet normal -0.15641 0.98769 0
    outer loop
      vertex 17.65 27.4 0
      vertex 5.614 25.494 12
      vertex 17.65 27.4 12
    endloop
  endfacet
  facet normal 0.88192 -0.4714 0
    outer loop
      vertex -13.491 9.257 1.498
      vertex -13.491 9.257 12
      vertex -16.952 2.782 12
    endloop
  endfacet
  facet normal 0.88192 -0.4714 0
    outer loop
      vertex -13.491 9.257 1.498
      vertex -16.952 2.782 12
      vertex -16.952 2.782 1.498
    endloop
  endfacet
  facet normal 0.77302 -0.63438 0
    outer loop
      vertex -8.833 14.933 1.498
      vertex -8.833 14.933 12
      vertex -13.491 9.257 12
    endloop
  endfacet
  facet normal 0.77302 -0.63438 0
    outer loop
      vertex -8.833 14.933 1.498
      vertex -13.491 9.257 12
      vertex -13.491 9.257 1.498
    endloop
  endfacet
  facet normal 0.63438 -0.77302 0
    outer loop
      vertex -3.157 19.591 1.498
      vertex -3.157 19.591 12
      vertex -8.833 14.933 12
    endloop
  endfacet
  facet normal 0.63438 -0.77302 0
    outer loop
      vertex -3.157 19.591 1.498
      vertex -8.833 14.933 12
      vertex -8.833 14.933 1.498
    endloop
  endfacet
  facet normal 0.4714 -0.88192 0
    outer loop
      vertex 3.318 23.052 1.498
      vertex 3.318 23.052 12
      vertex -3.157 19.591 12
    endloop
  endfacet
  facet normal 0.4714 -0.88192 0
    outer loop
      vertex 3.318 23.052 1.498
      vertex -3.157 19.591 12
      vertex -3.157 19.591 1.498
    endloop
  endfacet
endsolid stl_item0
